<?xml version="1.0" encoding="utf-8"?>
<!-- Generator: Adobe Illustrator 14.0.0, SVG Export Plug-In . SVG Version: 6.00 Build 43363)  -->
<!DOCTYPE svg PUBLIC "-//W3C//DTD SVG 1.1//EN" "http://www.w3.org/Graphics/SVG/1.1/DTD/svg11.dtd">
<svg version="1.1" id="Ebene_1" xmlns="http://www.w3.org/2000/svg" xmlns:xlink="http://www.w3.org/1999/xlink" x="0px" y="0px"
	 width="32.75px" height="32.583px" viewBox="32.917 -2.167 32.75 32.583" enable-background="new 32.917 -2.167 32.75 32.583"
	 xml:space="preserve">
<path fill="none" stroke="#6F6F6F" d="M52.542,14.417c-0.437-0.471-1.297-1.421-1.75-1.875c-0.484-0.485-2-1.875-2-1.875
	S47.5,9.5,47.417,9.375S47,8.708,46.917,8.542S46.75,7.797,46.75,7.797s-0.06-0.869-0.016-1.125c0.06-0.348,0.308-1.13,0.349-1.297
	s0.13-0.797,0.088-1.047s-0.281-1.213-0.406-1.422S46.285,2.06,46,1.583c-0.214-0.357-0.734-1.013-1-1.333
	c-0.193-0.232-0.618-0.675-0.875-0.833c-0.235-0.146-0.516-0.37-1.156-0.495C42.703-1.13,42.271-1.188,42-1.188
	c-0.313,0-0.963,0.104-1.25,0.229c-0.183,0.08-0.469,0.398-0.542,0.583c-0.061,0.155-0.03,0.502,0,0.667
	c0.039,0.211,0.09,0.654,0.208,0.833c0.187,0.286,0.774,0.688,1.083,0.833c0.261,0.122,0.96,0.337,1.219,0.463
	c0.353,0.172,0.867,0.483,1.115,0.787c0.238,0.292,0.648,0.96,0.708,1.333C44.61,4.969,44.4,5.844,44.25,6.25
	c-0.126,0.342-0.517,0.97-0.75,1.25c-0.217,0.261-0.67,0.78-0.958,0.958c-0.308,0.19-1.015,0.418-1.375,0.458
	c-0.302,0.033-0.912-0.057-1.208-0.125c-0.324-0.075-0.976-0.27-1.25-0.458s-0.72-0.706-0.875-1c-0.12-0.228-0.191-0.749-0.25-1
	c-0.066-0.28-0.261-0.86-0.396-1.115c-0.106-0.202-0.529-0.707-0.726-0.823c-0.247-0.146-0.551-0.2-0.836-0.229
	c-0.25-0.026-0.771,0.019-1,0.125c-0.167,0.078-0.468,0.331-0.542,0.5c-0.092,0.21-0.162,0.729-0.162,1.021s0,0.823,0,1.031
	c0,0.208,0.307,1.231,0.453,1.573c0.157,0.367,0.615,1.031,0.875,1.333c0.347,0.402,1.154,1.104,1.583,1.417
	c0.302,0.219,0.938,0.629,1.292,0.75c0.298,0.102,0.935,0.156,1.25,0.167c0.386,0.014,1.333-0.083,1.542-0.125
	s1.917,0.166,2.125,0.208s1.625,0.625,1.833,0.792s1,0.917,1.292,1.25s1.292,1.417,1.417,1.542s2.026,1.9,2.151,1.984
	s1.765,1.849,1.849,1.974s0.207,0.699,0.195,1.037c-0.006,0.19-0.147,0.854-0.2,1.036c-0.062,0.207-0.226,0.785-0.271,0.994
	c-0.065,0.295-0.016,0.851-0.016,1.017s0.046,1.388,0.25,1.791c0.123,0.244,0.54,0.97,0.646,1.104
	c0.213,0.271,0.826,1.076,1.141,1.453c0.213,0.254,0.699,0.657,0.964,0.858c0.192,0.146,0.646,0.336,0.875,0.417
	c0.384,0.135,1.183,0.313,1.583,0.375c0.329,0.05,1.063-0.021,1.188-0.104c0.125-0.084,0.328-0.174,0.553-0.547
	c0.244-0.406,0.244-0.75,0.244-1s0.031-0.453-0.233-0.938c-0.103-0.187-0.409-0.647-0.579-0.769c-0.41-0.291-0.41-0.291-0.951-0.541
	c-0.543-0.25-0.637-0.271-0.845-0.437s-0.833-0.625-1-0.75s-0.498-0.595-0.583-0.833c-0.081-0.229-0.125-0.833-0.125-0.958
	s0.166-1.125,0.166-1.292s0.209-0.958,0.334-1.125s0.441-0.502,0.625-0.625c0.162-0.107,0.52-0.287,0.708-0.333
	c0.324-0.079,1.153-0.015,1.333,0.041c0.407,0.125,0.938,0.258,1.292,0.375c0.179,0.06,0.749,0.291,0.958,0.375
	s0.492,0.173,0.792,0.5c0.31,0.338,0.544,0.491,0.669,0.825c0.125,0.332,0.275,0.748,0.414,1.092
	c0.168,0.415,0.375,0.833,0.459,0.958s0.229,0.267,0.375,0.334c0.171,0.078,0.625,0.083,0.75,0.083s0.667-0.125,0.75-0.25
	s0.368-0.926,0.416-1.25c0.045-0.311,0.037-0.939,0-1.25c-0.042-0.352-0.184-1.055-0.333-1.375
	c-0.187-0.398-0.752-1.086-1.042-1.417c-0.281-0.321-1.125-1.082-1.25-1.166s-1.105-0.576-1.5-0.709
	c-0.384-0.129-1.458-0.333-1.583-0.333s-1.958,0-2.125,0s-1.421,0.115-1.875,0c-0.229-0.059-0.646-0.313-0.833-0.458
	C53.518,15.604,52.889,14.79,52.542,14.417z"/>
</svg>
